<svg xmlns="http://www.w3.org/2000/svg" viewBox="0 0 341.26 232"><title>logo</title><polygon points="341.26 232 341.26 0 0 0 0 171.62 341.26 232"/><path d="M182.17,174.16V148.6h8.68a13.23,13.23,0,0,1,5.35,1,10.87,10.87,0,0,1,3.81,2.73,11.57,11.57,0,0,1,2.3,4,15.46,15.46,0,0,1,.78,5,15.15,15.15,0,0,1-.87,5.28,11.36,11.36,0,0,1-2.46,4,10.94,10.94,0,0,1-3.85,2.59,13.34,13.34,0,0,1-5.06.92Zm18.4-12.82a13.3,13.3,0,0,0-.65-4.23,9.57,9.57,0,0,0-1.89-3.33,8.45,8.45,0,0,0-3-2.17,10.33,10.33,0,0,0-4.14-.78h-6.16v21.1h6.16a10.2,10.2,0,0,0,4.19-.81,8.61,8.61,0,0,0,3.05-2.24,9.7,9.7,0,0,0,1.85-3.34A13.45,13.45,0,0,0,200.57,161.34Z" style="fill:#fff"/><path d="M207.91,174.16V148.6h2.52v25.56Z" style="fill:#fff"/><path d="M235.31,170.42a10.84,10.84,0,0,1-8.21,3.92,10.22,10.22,0,0,1-4.77-1.12,12.48,12.48,0,0,1-3.78-2.95,13.81,13.81,0,0,1-2.5-4.16,13,13,0,0,1-.9-4.77,13.7,13.7,0,0,1,.88-4.89,13,13,0,0,1,2.47-4.12,12,12,0,0,1,3.74-2.85,10.51,10.51,0,0,1,4.72-1.06,13.59,13.59,0,0,1,3.42.41,10.21,10.21,0,0,1,2.75,1.16,8.92,8.92,0,0,1,2.09,1.76,10.72,10.72,0,0,1,1.49,2.25l-1.94,1.29a8.3,8.3,0,0,0-3.28-3.49,9.31,9.31,0,0,0-4.57-1.11,8.08,8.08,0,0,0-3.83.9,9.27,9.27,0,0,0-2.92,2.39,11.07,11.07,0,0,0-1.85,3.42,12.21,12.21,0,0,0-.65,4,11.25,11.25,0,0,0,.74,4.1,10.82,10.82,0,0,0,2,3.4,9.87,9.87,0,0,0,3,2.33,8.54,8.54,0,0,0,3.8.86,9,9,0,0,0,4.19-1,12.32,12.32,0,0,0,3.84-3.25v-4.25h-5.69V161.6h7.81v12.56h-2.12Z" style="fill:#fff"/><path d="M242.62,174.16V148.6h2.52v25.56Z" style="fill:#fff"/><path d="M269.69,150.83h-9.11v23.33h-2.52V150.83H249V148.6h20.74Z" style="fill:#fff"/><path d="M278.9,148.6H281l10.62,25.56H289l-3.31-8H274.19l-3.28,8h-2.7Zm6.2,15.59L280,151.55l-5.22,12.64Z" style="fill:#fff"/><path d="M295.32,174.16V148.6h2.52v23.33H312.6v2.23Z" style="fill:#fff"/><path d="M35.93,133.77V29.17H60.09v83.39h50.68v21.21Z" style="fill:#fff"/><path d="M160.56,113.15A19.92,19.92,0,0,0,171,110.57a20.6,20.6,0,0,0,6.92-6.85,29.38,29.38,0,0,0,3.76-9.8,57.81,57.81,0,0,0,1.1-11.27V29.17H207V82.65A73.15,73.15,0,0,1,204.25,103a46.83,46.83,0,0,1-8.4,16.5,39.28,39.28,0,0,1-14.44,11.12q-8.76,4.07-20.85,4.05-12.51,0-21.36-4.27A39.4,39.4,0,0,1,124.84,119a46.88,46.88,0,0,1-8.1-16.57,74.4,74.4,0,0,1-2.58-19.74V29.17h24.16V82.65a53.92,53.92,0,0,0,1.18,11.49,30.31,30.31,0,0,0,3.83,9.73,20.16,20.16,0,0,0,6.85,6.77A20,20,0,0,0,160.56,113.15Z" style="fill:#fff"/><path d="M240.85,29.17l22.84,36.1,22.83-36.1H312.6l-36.24,53,35.06,51.56H285.35L263.69,99.15,242,133.77H215.81l35.06-51.56-36.24-53Z" style="fill:#fff"/><path d="M187.22,123.85c7.4-5.93,12.23-14.29,14.79-23.34a1.51,1.51,0,0,0-2.9-.8c-2.43,8.59-7,16.39-14,22-1.51,1.2.63,3.31,2.12,2.12Z"/><path d="M240.35,131l9.54-14.76c1.06-1.62-1.54-3.13-2.59-1.51l-9.54,14.76c-1,1.63,1.55,3.13,2.59,1.51Z"/><path d="M104.54,119.82v10a1.5,1.5,0,0,0,3,0v-10a1.5,1.5,0,0,0-3,0Z"/></svg>