<svg xmlns="http://www.w3.org/2000/svg" viewBox="0 0 276.67 145.17"><title>lux white</title><path d="M156.26,166.35V140.79h8.68a13.15,13.15,0,0,1,5.34,1,10.82,10.82,0,0,1,3.82,2.73,11.57,11.57,0,0,1,2.3,4.05,15.46,15.46,0,0,1,.78,4.95,15.15,15.15,0,0,1-.87,5.28,11.5,11.5,0,0,1-2.46,4,11,11,0,0,1-3.85,2.59,13.37,13.37,0,0,1-5.06.92Zm18.4-12.82a13.3,13.3,0,0,0-.65-4.23,9.57,9.57,0,0,0-1.89-3.33,8.6,8.6,0,0,0-3-2.18,10.5,10.5,0,0,0-4.14-.77h-6.16v21.1h6.16a10.2,10.2,0,0,0,4.19-.81,8.48,8.48,0,0,0,3-2.24,9.55,9.55,0,0,0,1.86-3.34A13.49,13.49,0,0,0,174.66,153.53Z" transform="translate(-10.02 -21.36)" style="fill:#fff"/><path d="M182,166.35V140.79h2.52v25.56Z" transform="translate(-10.02 -21.36)" style="fill:#fff"/><path d="M209.4,162.61a10.85,10.85,0,0,1-8.21,3.92,10.22,10.22,0,0,1-4.77-1.12,12.36,12.36,0,0,1-3.78-2.95,13.81,13.81,0,0,1-2.5-4.16,13,13,0,0,1-.9-4.77,13.7,13.7,0,0,1,.88-4.89,13.12,13.12,0,0,1,2.46-4.12,12.2,12.2,0,0,1,3.75-2.85,10.5,10.5,0,0,1,4.71-1.06,13.47,13.47,0,0,1,3.42.41,10.28,10.28,0,0,1,2.76,1.16,8.92,8.92,0,0,1,2.09,1.76,11.12,11.12,0,0,1,1.49,2.25l-1.94,1.29a8.36,8.36,0,0,0-3.28-3.49,9.31,9.31,0,0,0-4.57-1.11,8.12,8.12,0,0,0-3.84.9,9.24,9.24,0,0,0-2.91,2.39,11.1,11.1,0,0,0-1.86,3.42,12.47,12.47,0,0,0-.64,4,11.46,11.46,0,0,0,.73,4.1,10.85,10.85,0,0,0,2,3.4,9.87,9.87,0,0,0,3,2.33,8.51,8.51,0,0,0,3.8.86,9,9,0,0,0,4.19-1A12.57,12.57,0,0,0,209.4,160v-4.25h-5.69v-1.94h7.81v12.56H209.4Z" transform="translate(-10.02 -21.36)" style="fill:#fff"/><path d="M216.71,166.35V140.79h2.51v25.56Z" transform="translate(-10.02 -21.36)" style="fill:#fff"/><path d="M243.78,143h-9.11v23.33h-2.52V143H223v-2.23h20.74Z" transform="translate(-10.02 -21.36)" style="fill:#fff"/><path d="M253,140.79h2.13l10.62,25.56h-2.67l-3.31-8H248.28l-3.28,8h-2.7Zm6.19,15.59L254,143.74l-5.22,12.64Z" transform="translate(-10.02 -21.36)" style="fill:#fff"/><path d="M269.41,166.35V140.79h2.52v23.33h14.76v2.23Z" transform="translate(-10.02 -21.36)" style="fill:#fff"/><path d="M10,126V21.36H34.18v83.39H84.86V126Z" transform="translate(-10.02 -21.36)" style="fill:#fff"/><path d="M134.65,105.34a19.88,19.88,0,0,0,10.46-2.58A20.54,20.54,0,0,0,152,95.91a29.37,29.37,0,0,0,3.75-9.8,57.05,57.05,0,0,0,1.11-11.27V21.36h24.16V74.84a72.77,72.77,0,0,1-2.73,20.33,46.64,46.64,0,0,1-8.39,16.5,39.46,39.46,0,0,1-14.44,11.12q-8.77,4.06-20.85,4-12.53,0-21.36-4.27a39.51,39.51,0,0,1-14.36-11.42,46.89,46.89,0,0,1-8.11-16.57,74.87,74.87,0,0,1-2.57-19.74V21.36h24.16V74.84a53.92,53.92,0,0,0,1.18,11.49,30.26,30.26,0,0,0,3.83,9.72,18.94,18.94,0,0,0,17.23,9.29Z" transform="translate(-10.02 -21.36)" style="fill:#fff"/><path d="M214.94,21.36l22.84,36.1,22.83-36.1h26.08l-36.24,53L285.51,126H259.43L237.78,91.34,216.12,126H189.9L225,74.4l-36.24-53Z" transform="translate(-10.02 -21.36)" style="fill:#fff"/><path d="M161.31,116c7.4-5.93,12.23-14.29,14.78-23.35a1.5,1.5,0,0,0-2.89-.79c-2.43,8.59-7,16.39-14,22-1.51,1.2.63,3.31,2.12,2.12Z" transform="translate(-10.02 -21.36)"/><path d="M214.44,123.17,224,108.41c1.05-1.62-1.54-3.13-2.59-1.51l-9.54,14.76c-1,1.62,1.55,3.13,2.59,1.51Z" transform="translate(-10.02 -21.36)"/><path d="M78.63,112v10a1.5,1.5,0,0,0,3,0V112a1.5,1.5,0,0,0-3,0Z" transform="translate(-10.02 -21.36)"/></svg>